<mxfile host="Electron" modified="2023-08-15T02:17:35.445Z" agent="Mozilla/5.0 (Windows NT 10.0; Win64; x64) AppleWebKit/537.36 (KHTML, like Gecko) draw.io/21.6.1 Chrome/112.0.5615.204 Electron/24.6.1 Safari/537.36" etag="wshW1de_Vmc1lsVk-Nfy" version="21.6.1" type="device">
  <diagram id="prtHgNgQTEPvFCAcTncT" name="Page-1">
    <mxGraphModel dx="3012" dy="696" grid="1" gridSize="10" guides="1" tooltips="1" connect="1" arrows="1" fold="1" page="1" pageScale="1" pageWidth="827" pageHeight="1169" math="0" shadow="0">
      <root>
        <mxCell id="0" />
        <mxCell id="1" parent="0" />
        <mxCell id="2c5BFEw7uCcLmuuaQ_8N-22" style="edgeStyle=orthogonalEdgeStyle;rounded=0;orthogonalLoop=1;jettySize=auto;html=1;entryX=0.5;entryY=0;entryDx=0;entryDy=0;" edge="1" parent="1" source="2c5BFEw7uCcLmuuaQ_8N-14" target="2c5BFEw7uCcLmuuaQ_8N-17">
          <mxGeometry relative="1" as="geometry" />
        </mxCell>
        <mxCell id="2c5BFEw7uCcLmuuaQ_8N-14" value="Flask server script" style="whiteSpace=wrap;html=1;rounded=0;" vertex="1" parent="1">
          <mxGeometry x="20" y="590" width="120" height="60" as="geometry" />
        </mxCell>
        <mxCell id="2c5BFEw7uCcLmuuaQ_8N-91" value="" style="edgeStyle=orthogonalEdgeStyle;rounded=0;orthogonalLoop=1;jettySize=auto;html=1;" edge="1" parent="1" source="2c5BFEw7uCcLmuuaQ_8N-16" target="2c5BFEw7uCcLmuuaQ_8N-17">
          <mxGeometry relative="1" as="geometry" />
        </mxCell>
        <mxCell id="2c5BFEw7uCcLmuuaQ_8N-16" value="css" style="whiteSpace=wrap;html=1;rounded=0;" vertex="1" parent="1">
          <mxGeometry x="200" y="690" width="120" height="60" as="geometry" />
        </mxCell>
        <mxCell id="2c5BFEw7uCcLmuuaQ_8N-23" style="edgeStyle=orthogonalEdgeStyle;rounded=0;orthogonalLoop=1;jettySize=auto;html=1;entryX=1;entryY=0.5;entryDx=0;entryDy=0;" edge="1" parent="1" source="2c5BFEw7uCcLmuuaQ_8N-17" target="2c5BFEw7uCcLmuuaQ_8N-21">
          <mxGeometry relative="1" as="geometry" />
        </mxCell>
        <mxCell id="2c5BFEw7uCcLmuuaQ_8N-17" value="html&lt;br&gt;" style="whiteSpace=wrap;html=1;rounded=0;" vertex="1" parent="1">
          <mxGeometry x="20" y="690" width="120" height="60" as="geometry" />
        </mxCell>
        <mxCell id="2c5BFEw7uCcLmuuaQ_8N-53" style="edgeStyle=orthogonalEdgeStyle;rounded=0;orthogonalLoop=1;jettySize=auto;html=1;entryX=0.9;entryY=0.5;entryDx=0;entryDy=0;entryPerimeter=0;" edge="1" parent="1" source="2c5BFEw7uCcLmuuaQ_8N-21" target="2c5BFEw7uCcLmuuaQ_8N-55">
          <mxGeometry relative="1" as="geometry">
            <mxPoint x="-220" y="520.0588235294119" as="targetPoint" />
          </mxGeometry>
        </mxCell>
        <mxCell id="2c5BFEw7uCcLmuuaQ_8N-143" style="edgeStyle=orthogonalEdgeStyle;rounded=0;orthogonalLoop=1;jettySize=auto;html=1;entryX=0;entryY=0;entryDx=0;entryDy=25;entryPerimeter=0;" edge="1" parent="1" source="2c5BFEw7uCcLmuuaQ_8N-21" target="2c5BFEw7uCcLmuuaQ_8N-26">
          <mxGeometry relative="1" as="geometry">
            <Array as="points">
              <mxPoint x="-100" y="835" />
            </Array>
          </mxGeometry>
        </mxCell>
        <mxCell id="2c5BFEw7uCcLmuuaQ_8N-21" value="webpage&lt;br&gt;textInput box&lt;br&gt;http://localhost:5000" style="shape=document;whiteSpace=wrap;html=1;boundedLbl=1;" vertex="1" parent="1">
          <mxGeometry x="-160" y="690" width="120" height="80" as="geometry" />
        </mxCell>
        <mxCell id="2c5BFEw7uCcLmuuaQ_8N-141" style="edgeStyle=orthogonalEdgeStyle;rounded=0;orthogonalLoop=1;jettySize=auto;html=1;exitX=0;exitY=0;exitDx=120.00000000000001;exitDy=25;exitPerimeter=0;entryX=0;entryY=0.5;entryDx=0;entryDy=0;" edge="1" parent="1" source="2c5BFEw7uCcLmuuaQ_8N-26" target="2c5BFEw7uCcLmuuaQ_8N-28">
          <mxGeometry relative="1" as="geometry" />
        </mxCell>
        <mxCell id="2c5BFEw7uCcLmuuaQ_8N-26" value="User inputs summoner name&lt;br&gt;e.g. &quot;The Steina&quot;" style="shape=callout;whiteSpace=wrap;html=1;perimeter=calloutPerimeter;" vertex="1" parent="1">
          <mxGeometry x="10" y="810" width="120" height="80" as="geometry" />
        </mxCell>
        <mxCell id="2c5BFEw7uCcLmuuaQ_8N-69" value="" style="edgeStyle=orthogonalEdgeStyle;rounded=0;orthogonalLoop=1;jettySize=auto;html=1;" edge="1" parent="1" source="2c5BFEw7uCcLmuuaQ_8N-28" target="2c5BFEw7uCcLmuuaQ_8N-68">
          <mxGeometry relative="1" as="geometry" />
        </mxCell>
        <mxCell id="2c5BFEw7uCcLmuuaQ_8N-28" value="Flask server" style="whiteSpace=wrap;html=1;" vertex="1" parent="1">
          <mxGeometry x="180" y="810" width="120" height="60" as="geometry" />
        </mxCell>
        <mxCell id="2c5BFEw7uCcLmuuaQ_8N-33" value="" style="edgeStyle=orthogonalEdgeStyle;rounded=0;orthogonalLoop=1;jettySize=auto;html=1;" edge="1" parent="1" source="2c5BFEw7uCcLmuuaQ_8N-30" target="2c5BFEw7uCcLmuuaQ_8N-32">
          <mxGeometry relative="1" as="geometry" />
        </mxCell>
        <mxCell id="2c5BFEw7uCcLmuuaQ_8N-34" value="Get summoner data" style="edgeLabel;html=1;align=center;verticalAlign=middle;resizable=0;points=[];fontSize=15;" vertex="1" connectable="0" parent="2c5BFEw7uCcLmuuaQ_8N-33">
          <mxGeometry x="-0.1598" y="-4" relative="1" as="geometry">
            <mxPoint x="-1" as="offset" />
          </mxGeometry>
        </mxCell>
        <mxCell id="2c5BFEw7uCcLmuuaQ_8N-30" value="Python script" style="whiteSpace=wrap;html=1;" vertex="1" parent="1">
          <mxGeometry x="770.29" y="810" width="120" height="60" as="geometry" />
        </mxCell>
        <mxCell id="2c5BFEw7uCcLmuuaQ_8N-131" style="edgeStyle=orthogonalEdgeStyle;rounded=0;orthogonalLoop=1;jettySize=auto;html=1;exitX=0.55;exitY=0.95;exitDx=0;exitDy=0;exitPerimeter=0;entryX=0.5;entryY=0;entryDx=0;entryDy=0;" edge="1" parent="1" source="2c5BFEw7uCcLmuuaQ_8N-32" target="2c5BFEw7uCcLmuuaQ_8N-38">
          <mxGeometry relative="1" as="geometry" />
        </mxCell>
        <mxCell id="2c5BFEw7uCcLmuuaQ_8N-132" value="puuid" style="edgeLabel;html=1;align=center;verticalAlign=middle;resizable=0;points=[];fontSize=15;" vertex="1" connectable="0" parent="2c5BFEw7uCcLmuuaQ_8N-131">
          <mxGeometry x="-0.5798" y="5" relative="1" as="geometry">
            <mxPoint x="-11" y="23" as="offset" />
          </mxGeometry>
        </mxCell>
        <mxCell id="2c5BFEw7uCcLmuuaQ_8N-32" value="API" style="ellipse;shape=cloud;whiteSpace=wrap;html=1;" vertex="1" parent="1">
          <mxGeometry x="770.29" y="965" width="120" height="80" as="geometry" />
        </mxCell>
        <mxCell id="2c5BFEw7uCcLmuuaQ_8N-112" style="edgeStyle=orthogonalEdgeStyle;rounded=0;orthogonalLoop=1;jettySize=auto;html=1;entryX=0.5;entryY=0;entryDx=0;entryDy=0;" edge="1" parent="1" source="2c5BFEw7uCcLmuuaQ_8N-38" target="2c5BFEw7uCcLmuuaQ_8N-96">
          <mxGeometry relative="1" as="geometry" />
        </mxCell>
        <mxCell id="2c5BFEw7uCcLmuuaQ_8N-113" value="puuid" style="edgeLabel;html=1;align=center;verticalAlign=middle;resizable=0;points=[];fontSize=15;" vertex="1" connectable="0" parent="2c5BFEw7uCcLmuuaQ_8N-112">
          <mxGeometry x="0.0396" y="4" relative="1" as="geometry">
            <mxPoint as="offset" />
          </mxGeometry>
        </mxCell>
        <mxCell id="2c5BFEw7uCcLmuuaQ_8N-115" style="edgeStyle=orthogonalEdgeStyle;rounded=0;orthogonalLoop=1;jettySize=auto;html=1;" edge="1" parent="1" source="2c5BFEw7uCcLmuuaQ_8N-38" target="2c5BFEw7uCcLmuuaQ_8N-114">
          <mxGeometry relative="1" as="geometry" />
        </mxCell>
        <mxCell id="2c5BFEw7uCcLmuuaQ_8N-38" value="Python script&lt;br&gt;sqlalchemy:update loldb with puuid" style="whiteSpace=wrap;html=1;" vertex="1" parent="1">
          <mxGeometry x="780" y="1140" width="120" height="60" as="geometry" />
        </mxCell>
        <mxCell id="2c5BFEw7uCcLmuuaQ_8N-52" style="edgeStyle=orthogonalEdgeStyle;rounded=0;orthogonalLoop=1;jettySize=auto;html=1;entryX=0.5;entryY=0;entryDx=0;entryDy=0;" edge="1" parent="1" source="2c5BFEw7uCcLmuuaQ_8N-49" target="2c5BFEw7uCcLmuuaQ_8N-14">
          <mxGeometry relative="1" as="geometry" />
        </mxCell>
        <mxCell id="2c5BFEw7uCcLmuuaQ_8N-49" value="User visits http://localhost:5000" style="shape=callout;whiteSpace=wrap;html=1;perimeter=calloutPerimeter;" vertex="1" parent="1">
          <mxGeometry x="20" y="460" width="120" height="80" as="geometry" />
        </mxCell>
        <mxCell id="2c5BFEw7uCcLmuuaQ_8N-140" style="edgeStyle=orthogonalEdgeStyle;rounded=0;orthogonalLoop=1;jettySize=auto;html=1;exitX=1;exitY=0.75;exitDx=0;exitDy=0;entryX=0;entryY=0.75;entryDx=0;entryDy=0;" edge="1" parent="1" source="2c5BFEw7uCcLmuuaQ_8N-55" target="2c5BFEw7uCcLmuuaQ_8N-21">
          <mxGeometry relative="1" as="geometry" />
        </mxCell>
        <mxCell id="2c5BFEw7uCcLmuuaQ_8N-55" value="&lt;br&gt;&lt;br&gt;&lt;br&gt;User" style="shape=actor;whiteSpace=wrap;html=1;" vertex="1" parent="1">
          <mxGeometry x="-250" y="700" width="40" height="60" as="geometry" />
        </mxCell>
        <mxCell id="2c5BFEw7uCcLmuuaQ_8N-56" value="TODO: Move to remote host" style="shape=note;whiteSpace=wrap;html=1;backgroundOutline=1;darkOpacity=0.05;fillColor=#f8cecc;strokeColor=#b85450;" vertex="1" parent="1">
          <mxGeometry x="160" y="480" width="70" height="70" as="geometry" />
        </mxCell>
        <mxCell id="2c5BFEw7uCcLmuuaQ_8N-70" value="" style="edgeStyle=orthogonalEdgeStyle;rounded=0;orthogonalLoop=1;jettySize=auto;html=1;" edge="1" parent="1" source="2c5BFEw7uCcLmuuaQ_8N-68" target="2c5BFEw7uCcLmuuaQ_8N-30">
          <mxGeometry relative="1" as="geometry" />
        </mxCell>
        <mxCell id="2c5BFEw7uCcLmuuaQ_8N-71" value="Not in db" style="edgeLabel;html=1;align=center;verticalAlign=middle;resizable=0;points=[];fontSize=18;" vertex="1" connectable="0" parent="2c5BFEw7uCcLmuuaQ_8N-70">
          <mxGeometry x="0.0973" y="-3" relative="1" as="geometry">
            <mxPoint as="offset" />
          </mxGeometry>
        </mxCell>
        <mxCell id="2c5BFEw7uCcLmuuaQ_8N-136" style="edgeStyle=orthogonalEdgeStyle;rounded=0;orthogonalLoop=1;jettySize=auto;html=1;entryX=1;entryY=0.5;entryDx=0;entryDy=0;" edge="1" parent="1" source="2c5BFEw7uCcLmuuaQ_8N-68" target="2c5BFEw7uCcLmuuaQ_8N-117">
          <mxGeometry relative="1" as="geometry">
            <Array as="points">
              <mxPoint x="460" y="1085" />
            </Array>
          </mxGeometry>
        </mxCell>
        <mxCell id="2c5BFEw7uCcLmuuaQ_8N-137" value="&lt;font style=&quot;font-size: 15px;&quot;&gt;Records Located&lt;/font&gt;" style="edgeLabel;html=1;align=center;verticalAlign=middle;resizable=0;points=[];" vertex="1" connectable="0" parent="2c5BFEw7uCcLmuuaQ_8N-136">
          <mxGeometry x="-0.2697" y="4" relative="1" as="geometry">
            <mxPoint as="offset" />
          </mxGeometry>
        </mxCell>
        <mxCell id="2c5BFEw7uCcLmuuaQ_8N-68" value="Python script&lt;br&gt;sqlalchemy:Query for summoner in loldb&lt;br&gt;where data &amp;lt;4hrs old" style="whiteSpace=wrap;html=1;" vertex="1" parent="1">
          <mxGeometry x="400" y="810" width="120" height="60" as="geometry" />
        </mxCell>
        <mxCell id="2c5BFEw7uCcLmuuaQ_8N-89" style="edgeStyle=orthogonalEdgeStyle;rounded=0;orthogonalLoop=1;jettySize=auto;html=1;entryX=1;entryY=0.5;entryDx=0;entryDy=0;" edge="1" parent="1" source="2c5BFEw7uCcLmuuaQ_8N-77" target="2c5BFEw7uCcLmuuaQ_8N-85">
          <mxGeometry relative="1" as="geometry" />
        </mxCell>
        <mxCell id="2c5BFEw7uCcLmuuaQ_8N-77" value="flask script" style="whiteSpace=wrap;html=1;" vertex="1" parent="1">
          <mxGeometry x="100" y="1055" width="120" height="60" as="geometry" />
        </mxCell>
        <mxCell id="2c5BFEw7uCcLmuuaQ_8N-116" value="" style="edgeStyle=orthogonalEdgeStyle;rounded=0;orthogonalLoop=1;jettySize=auto;html=1;" edge="1" parent="1" source="2c5BFEw7uCcLmuuaQ_8N-83" target="2c5BFEw7uCcLmuuaQ_8N-85">
          <mxGeometry relative="1" as="geometry">
            <Array as="points">
              <mxPoint x="20" y="1330" />
            </Array>
          </mxGeometry>
        </mxCell>
        <mxCell id="2c5BFEw7uCcLmuuaQ_8N-83" value="css" style="whiteSpace=wrap;html=1;rounded=0;" vertex="1" parent="1">
          <mxGeometry x="-40" y="1270" width="120" height="60" as="geometry" />
        </mxCell>
        <mxCell id="2c5BFEw7uCcLmuuaQ_8N-145" style="edgeStyle=orthogonalEdgeStyle;rounded=0;orthogonalLoop=1;jettySize=auto;html=1;" edge="1" parent="1" source="2c5BFEw7uCcLmuuaQ_8N-85" target="2c5BFEw7uCcLmuuaQ_8N-87">
          <mxGeometry relative="1" as="geometry" />
        </mxCell>
        <mxCell id="2c5BFEw7uCcLmuuaQ_8N-85" value="html&lt;br&gt;" style="whiteSpace=wrap;html=1;rounded=0;" vertex="1" parent="1">
          <mxGeometry x="-90" y="1055" width="120" height="60" as="geometry" />
        </mxCell>
        <mxCell id="2c5BFEw7uCcLmuuaQ_8N-86" style="edgeStyle=orthogonalEdgeStyle;rounded=0;orthogonalLoop=1;jettySize=auto;html=1;entryX=0.9;entryY=0.5;entryDx=0;entryDy=0;entryPerimeter=0;" edge="1" source="2c5BFEw7uCcLmuuaQ_8N-87" target="2c5BFEw7uCcLmuuaQ_8N-88" parent="1">
          <mxGeometry relative="1" as="geometry">
            <mxPoint x="-380" y="980.0588235294119" as="targetPoint" />
          </mxGeometry>
        </mxCell>
        <mxCell id="2c5BFEw7uCcLmuuaQ_8N-87" value="webpage&lt;br&gt;http://localhost:5000/summoner" style="shape=document;whiteSpace=wrap;html=1;boundedLbl=1;" vertex="1" parent="1">
          <mxGeometry x="-115" y="910" width="170" height="90" as="geometry" />
        </mxCell>
        <mxCell id="2c5BFEw7uCcLmuuaQ_8N-88" value="&lt;br&gt;&lt;br&gt;&lt;br&gt;User" style="shape=actor;whiteSpace=wrap;html=1;" vertex="1" parent="1">
          <mxGeometry x="-240" y="925" width="40" height="60" as="geometry" />
        </mxCell>
        <mxCell id="2c5BFEw7uCcLmuuaQ_8N-110" style="edgeStyle=orthogonalEdgeStyle;rounded=0;orthogonalLoop=1;jettySize=auto;html=1;entryX=0.875;entryY=0.5;entryDx=0;entryDy=0;entryPerimeter=0;" edge="1" parent="1" source="2c5BFEw7uCcLmuuaQ_8N-96" target="2c5BFEw7uCcLmuuaQ_8N-99">
          <mxGeometry relative="1" as="geometry">
            <mxPoint x="660" y="1460" as="targetPoint" />
          </mxGeometry>
        </mxCell>
        <mxCell id="2c5BFEw7uCcLmuuaQ_8N-111" value="API Call" style="edgeLabel;html=1;align=center;verticalAlign=middle;resizable=0;points=[];fontSize=15;" vertex="1" connectable="0" parent="2c5BFEw7uCcLmuuaQ_8N-110">
          <mxGeometry x="0.0849" y="1" relative="1" as="geometry">
            <mxPoint as="offset" />
          </mxGeometry>
        </mxCell>
        <mxCell id="2c5BFEw7uCcLmuuaQ_8N-96" value="Python Script" style="whiteSpace=wrap;html=1;" vertex="1" parent="1">
          <mxGeometry x="780" y="1330" width="120" height="60" as="geometry" />
        </mxCell>
        <mxCell id="2c5BFEw7uCcLmuuaQ_8N-109" value="" style="edgeStyle=orthogonalEdgeStyle;rounded=0;orthogonalLoop=1;jettySize=auto;html=1;" edge="1" parent="1" source="2c5BFEw7uCcLmuuaQ_8N-99" target="2c5BFEw7uCcLmuuaQ_8N-108">
          <mxGeometry relative="1" as="geometry" />
        </mxCell>
        <mxCell id="2c5BFEw7uCcLmuuaQ_8N-99" value="API" style="ellipse;shape=cloud;whiteSpace=wrap;html=1;" vertex="1" parent="1">
          <mxGeometry x="550" y="1320" width="120" height="80" as="geometry" />
        </mxCell>
        <mxCell id="2c5BFEw7uCcLmuuaQ_8N-122" value="" style="edgeStyle=orthogonalEdgeStyle;rounded=0;orthogonalLoop=1;jettySize=auto;html=1;" edge="1" parent="1" source="2c5BFEw7uCcLmuuaQ_8N-108" target="2c5BFEw7uCcLmuuaQ_8N-120">
          <mxGeometry relative="1" as="geometry" />
        </mxCell>
        <mxCell id="2c5BFEw7uCcLmuuaQ_8N-108" value="match data&lt;br&gt;match timelines" style="shape=document;whiteSpace=wrap;html=1;boundedLbl=1;" vertex="1" parent="1">
          <mxGeometry x="550" y="1180" width="120" height="80" as="geometry" />
        </mxCell>
        <mxCell id="2c5BFEw7uCcLmuuaQ_8N-114" value="loldb" style="shape=internalStorage;whiteSpace=wrap;html=1;backgroundOutline=1;" vertex="1" parent="1">
          <mxGeometry x="980" y="1130" width="80" height="80" as="geometry" />
        </mxCell>
        <mxCell id="2c5BFEw7uCcLmuuaQ_8N-118" value="" style="edgeStyle=orthogonalEdgeStyle;rounded=0;orthogonalLoop=1;jettySize=auto;html=1;" edge="1" parent="1" source="2c5BFEw7uCcLmuuaQ_8N-117" target="2c5BFEw7uCcLmuuaQ_8N-77">
          <mxGeometry relative="1" as="geometry" />
        </mxCell>
        <mxCell id="2c5BFEw7uCcLmuuaQ_8N-117" value="match data&lt;br&gt;match timelines" style="shape=document;whiteSpace=wrap;html=1;boundedLbl=1;" vertex="1" parent="1">
          <mxGeometry x="260" y="1045" width="120" height="80" as="geometry" />
        </mxCell>
        <mxCell id="2c5BFEw7uCcLmuuaQ_8N-123" value="" style="edgeStyle=orthogonalEdgeStyle;rounded=0;orthogonalLoop=1;jettySize=auto;html=1;" edge="1" parent="1" source="2c5BFEw7uCcLmuuaQ_8N-120" target="2c5BFEw7uCcLmuuaQ_8N-121">
          <mxGeometry relative="1" as="geometry" />
        </mxCell>
        <mxCell id="2c5BFEw7uCcLmuuaQ_8N-129" style="edgeStyle=orthogonalEdgeStyle;rounded=0;orthogonalLoop=1;jettySize=auto;html=1;entryX=1;entryY=0.5;entryDx=0;entryDy=0;" edge="1" parent="1" source="2c5BFEw7uCcLmuuaQ_8N-120" target="2c5BFEw7uCcLmuuaQ_8N-126">
          <mxGeometry relative="1" as="geometry" />
        </mxCell>
        <mxCell id="2c5BFEw7uCcLmuuaQ_8N-120" value="Python script&lt;br&gt;sqlalchemy:write data to loldb" style="whiteSpace=wrap;html=1;" vertex="1" parent="1">
          <mxGeometry x="340" y="1190" width="120" height="60" as="geometry" />
        </mxCell>
        <mxCell id="2c5BFEw7uCcLmuuaQ_8N-121" value="loldb" style="shape=internalStorage;whiteSpace=wrap;html=1;backgroundOutline=1;" vertex="1" parent="1">
          <mxGeometry x="360" y="1320" width="80" height="80" as="geometry" />
        </mxCell>
        <mxCell id="2c5BFEw7uCcLmuuaQ_8N-128" style="edgeStyle=orthogonalEdgeStyle;rounded=0;orthogonalLoop=1;jettySize=auto;html=1;entryX=0.5;entryY=1;entryDx=0;entryDy=0;" edge="1" parent="1" source="2c5BFEw7uCcLmuuaQ_8N-126" target="2c5BFEw7uCcLmuuaQ_8N-77">
          <mxGeometry relative="1" as="geometry" />
        </mxCell>
        <mxCell id="2c5BFEw7uCcLmuuaQ_8N-126" value="match data&lt;br&gt;match timelines" style="shape=document;whiteSpace=wrap;html=1;boundedLbl=1;" vertex="1" parent="1">
          <mxGeometry x="100" y="1180" width="120" height="80" as="geometry" />
        </mxCell>
        <mxCell id="2c5BFEw7uCcLmuuaQ_8N-134" value="&lt;font style=&quot;font-size: 19px;&quot;&gt;Example summoner page&lt;/font&gt;" style="shape=note;whiteSpace=wrap;html=1;backgroundOutline=1;darkOpacity=0.05;" vertex="1" parent="1">
          <mxGeometry x="-640" y="922.54" width="220" height="100" as="geometry" />
        </mxCell>
        <mxCell id="2c5BFEw7uCcLmuuaQ_8N-146" value="Recent Match Data" style="rounded=0;whiteSpace=wrap;html=1;" vertex="1" parent="1">
          <mxGeometry x="-680" y="1280" width="530" height="260" as="geometry" />
        </mxCell>
        <mxCell id="2c5BFEw7uCcLmuuaQ_8N-147" value="Performance Data" style="rounded=0;whiteSpace=wrap;html=1;" vertex="1" parent="1">
          <mxGeometry x="-680" y="1160" width="530" height="120" as="geometry" />
        </mxCell>
        <mxCell id="2c5BFEw7uCcLmuuaQ_8N-148" value="Rank/League Data" style="rounded=0;whiteSpace=wrap;html=1;" vertex="1" parent="1">
          <mxGeometry x="-900" y="1160" width="220" height="170" as="geometry" />
        </mxCell>
        <mxCell id="2c5BFEw7uCcLmuuaQ_8N-149" value="Champion Data" style="rounded=0;whiteSpace=wrap;html=1;" vertex="1" parent="1">
          <mxGeometry x="-900" y="1330" width="220" height="210" as="geometry" />
        </mxCell>
        <mxCell id="2c5BFEw7uCcLmuuaQ_8N-150" value="Player Stats, Data" style="rounded=0;whiteSpace=wrap;html=1;" vertex="1" parent="1">
          <mxGeometry x="-900" y="1040" width="750" height="120" as="geometry" />
        </mxCell>
        <mxCell id="2c5BFEw7uCcLmuuaQ_8N-151" value="&lt;font style=&quot;font-size: 19px;&quot;&gt;Example champion page&lt;/font&gt;" style="shape=note;whiteSpace=wrap;html=1;backgroundOutline=1;darkOpacity=0.05;" vertex="1" parent="1">
          <mxGeometry x="-620" y="1640" width="220" height="100" as="geometry" />
        </mxCell>
        <mxCell id="2c5BFEw7uCcLmuuaQ_8N-152" value="TODO: Design champion pipeline" style="shape=note;whiteSpace=wrap;html=1;backgroundOutline=1;darkOpacity=0.05;fillColor=#f8cecc;strokeColor=#b85450;" vertex="1" parent="1">
          <mxGeometry x="-330" y="1660" width="70" height="70" as="geometry" />
        </mxCell>
        <mxCell id="2c5BFEw7uCcLmuuaQ_8N-155" value="" style="edgeStyle=orthogonalEdgeStyle;rounded=0;orthogonalLoop=1;jettySize=auto;html=1;" edge="1" parent="1" source="2c5BFEw7uCcLmuuaQ_8N-153" target="2c5BFEw7uCcLmuuaQ_8N-85">
          <mxGeometry relative="1" as="geometry" />
        </mxCell>
        <mxCell id="2c5BFEw7uCcLmuuaQ_8N-153" value="Javascript" style="whiteSpace=wrap;html=1;rounded=0;" vertex="1" parent="1">
          <mxGeometry x="-130" y="1180" width="120" height="60" as="geometry" />
        </mxCell>
      </root>
    </mxGraphModel>
  </diagram>
</mxfile>
